{
  "asset": {
    "generator": "Khronos glTF Blender I/O v4.1.62",
    "version": "2.0"
  },
  "scene": 0,
  "scenes": [
    {
      "name": "Scene",
      "nodes": [
        2,
        3,
        4,
        5,
        6,
        7,
        8,
        9
      ]
    }
  ],
  "nodes": [
    {
      "mesh": 0,
      "name": "Body.001"
    },
    {
      "mesh": 1,
      "name": "Body.002"
    },
    {
      "children": [
        0,
        1
      ],
      "mesh": 2,
      "name": "Body"
    },
    {
      "mesh": 3,
      "name": "Body.006"
    },
    {
      "mesh": 4,
      "name": "Outer_eye",
      "rotation": [
        0.5,
        0.49999988079071045,
        0.5,
        0.5000001192092896
      ],
      "scale": [
        0.02218993380665779,
        0.02218993380665779,
        0.02218993380665779
      ],
      "translation": [
        0.03555300086736679,
        1.7952672243118286,
        0.08261559903621674
      ]
    },
    {
      "mesh": 5,
      "name": "Outer_eye.001",
      "rotation": [
        0.5,
        0.49999988079071045,
        0.5,
        0.5000001192092896
      ],
      "scale": [
        0.02218993380665779,
        0.02218993380665779,
        0.02218993380665779
      ],
      "translation": [
        -0.03555300086736679,
        1.7952672243118286,
        0.08261559903621674
      ]
    },
    {
      "mesh": 6,
      "name": "Sphere",
      "rotation": [
        0.5,
        0.49999988079071045,
        0.5,
        0.5000001192092896
      ],
      "scale": [
        0.02218993380665779,
        0.02218993380665779,
        0.02218993380665779
      ],
      "translation": [
        0.03555300086736679,
        1.7951984405517578,
        0.08261559903621674
      ]
    },
    {
      "mesh": 7,
      "name": "Sphere.001",
      "rotation": [
        0.5,
        0.49999988079071045,
        0.5,
        0.5000001192092896
      ],
      "scale": [
        0.02218993380665779,
        0.02218993380665779,
        0.02218993380665779
      ],
      "translation": [
        -0.03555300086736679,
        1.7951984405517578,
        0.08261559903621674
      ]
    },
    {
      "mesh": 8,
      "name": "Eyebrows",
      "translation": [
        0.0331302210688591,
        1.8149445056915283,
        0.11583136022090912
      ]
    },
    {
      "mesh": 9,
      "name": "Eyelashes",
      "rotation": [
        -0.6499866843223572,
        0.08145959675312042,
        0.0699939876794815,
        0.7523180842399597
      ],
      "scale": [
        0.011512283235788345,
        0.01151228602975607,
        0.011512295342981815
      ],
      "translation": [
        0.03730149194598198,
        1.7954288721084595,
        0.10771398991346359
      ]
    }
  ],
  "materials": [
    {
      "doubleSided": true,
      "name": "Body",
      "pbrMetallicRoughness": {
        "baseColorFactor": [
          0.27383020520210266,
          0.27383020520210266,
          0.27383020520210266,
          1
        ],
        "metallicFactor": 0.5354330539703369,
        "roughnessFactor": 0.7204723954200745
      }
    },
    {
      "doubleSided": true,
      "name": "Eyelashes",
      "pbrMetallicRoughness": {
        "baseColorFactor": [
          0,
          0,
          0,
          1
        ],
        "metallicFactor": 0.9370078444480896,
        "roughnessFactor": 0.5
      }
    }
  ],
  "meshes": [
    {
      "name": "Plane.001",
      "primitives": [
        {
          "attributes": {
            "POSITION": 0,
            "NORMAL": 1,
            "TEXCOORD_0": 2
          },
          "indices": 3,
          "material": 0
        }
      ]
    },
    {
      "name": "Plane.002",
      "primitives": [
        {
          "attributes": {
            "POSITION": 4,
            "NORMAL": 5,
            "TEXCOORD_0": 6
          },
          "indices": 7,
          "material": 0
        }
      ]
    },
    {
      "name": "Plane.004",
      "primitives": [
        {
          "attributes": {
            "POSITION": 8,
            "NORMAL": 9,
            "TEXCOORD_0": 10
          },
          "indices": 11,
          "material": 0
        }
      ]
    },
    {
      "name": "Plane.010",
      "primitives": [
        {
          "attributes": {
            "POSITION": 12,
            "NORMAL": 13,
            "TEXCOORD_0": 14
          },
          "indices": 15,
          "material": 0
        }
      ]
    },
    {
      "name": "Sphere.002",
      "primitives": [
        {
          "attributes": {
            "POSITION": 16,
            "NORMAL": 17,
            "TEXCOORD_0": 18
          },
          "indices": 19,
          "material": 0
        }
      ]
    },
    {
      "name": "Sphere.005",
      "primitives": [
        {
          "attributes": {
            "POSITION": 20,
            "NORMAL": 21,
            "TEXCOORD_0": 22
          },
          "indices": 19,
          "material": 0
        }
      ]
    },
    {
      "name": "Sphere",
      "primitives": [
        {
          "attributes": {
            "POSITION": 23,
            "NORMAL": 24,
            "TEXCOORD_0": 25
          },
          "indices": 26
        },
        {
          "attributes": {
            "POSITION": 27,
            "NORMAL": 28,
            "TEXCOORD_0": 29
          },
          "indices": 30
        },
        {
          "attributes": {
            "POSITION": 31,
            "NORMAL": 32,
            "TEXCOORD_0": 33
          },
          "indices": 34
        },
        {
          "attributes": {
            "POSITION": 35,
            "NORMAL": 36,
            "TEXCOORD_0": 37
          },
          "indices": 38
        }
      ]
    },
    {
      "name": "Sphere.003",
      "primitives": [
        {
          "attributes": {
            "POSITION": 39,
            "NORMAL": 40,
            "TEXCOORD_0": 41
          },
          "indices": 26
        },
        {
          "attributes": {
            "POSITION": 42,
            "NORMAL": 43,
            "TEXCOORD_0": 44
          },
          "indices": 30
        },
        {
          "attributes": {
            "POSITION": 45,
            "NORMAL": 46,
            "TEXCOORD_0": 47
          },
          "indices": 34
        },
        {
          "attributes": {
            "POSITION": 48,
            "NORMAL": 49,
            "TEXCOORD_0": 50
          },
          "indices": 38
        }
      ]
    },
    {
      "name": "eyebrows",
      "primitives": [
        {
          "attributes": {
            "POSITION": 51,
            "NORMAL": 52,
            "TEXCOORD_0": 53,
            "TEXCOORD_1": 54
          },
          "indices": 55,
          "material": 1
        }
      ]
    },
    {
      "name": "Object_0.001",
      "primitives": [
        {
          "attributes": {
            "POSITION": 56,
            "NORMAL": 57,
            "TEXCOORD_0": 58
          },
          "indices": 59,
          "material": 1
        }
      ]
    }
  ],
  "accessors": [
    {
      "bufferView": 0,
      "componentType": 5126,
      "count": 534,
      "max": [
        0.788504958152771,
        1.1489139795303345,
        0.09072286635637283
      ],
      "min": [
        0.6815109848976135,
        1.115002155303955,
        -0.03166007623076439
      ],
      "type": "VEC3"
    },
    {
      "bufferView": 1,
      "componentType": 5126,
      "count": 534,
      "type": "VEC3"
    },
    {
      "bufferView": 2,
      "componentType": 5126,
      "count": 534,
      "type": "VEC2"
    },
    {
      "bufferView": 3,
      "componentType": 5123,
      "count": 2430,
      "type": "SCALAR"
    },
    {
      "bufferView": 4,
      "componentType": 5126,
      "count": 814,
      "max": [
        -0.6814683675765991,
        1.1489139795303345,
        0.09072286635637283
      ],
      "min": [
        -0.7885048389434814,
        1.1145451068878174,
        -0.03166007623076439
      ],
      "type": "VEC3"
    },
    {
      "bufferView": 5,
      "componentType": 5126,
      "count": 814,
      "type": "VEC3"
    },
    {
      "bufferView": 6,
      "componentType": 5126,
      "count": 814,
      "type": "VEC2"
    },
    {
      "bufferView": 7,
      "componentType": 5123,
      "count": 3246,
      "type": "SCALAR"
    },
    {
      "bufferView": 8,
      "componentType": 5126,
      "count": 22594,
      "max": [
        0.788504958152771,
        1.8442002534866333,
        0.1677352488040924
      ],
      "min": [
        -0.7842981219291687,
        -0.007951974868774414,
        -0.09987404942512512
      ],
      "type": "VEC3"
    },
    {
      "bufferView": 9,
      "componentType": 5126,
      "count": 22594,
      "type": "VEC3"
    },
    {
      "bufferView": 10,
      "componentType": 5126,
      "count": 22594,
      "type": "VEC2"
    },
    {
      "bufferView": 11,
      "componentType": 5123,
      "count": 120234,
      "type": "SCALAR"
    },
    {
      "bufferView": 12,
      "componentType": 5126,
      "count": 1838,
      "max": [
        0.1439305543899536,
        0.013926267623901367,
        0.15105630457401276
      ],
      "min": [
        -0.1439305543899536,
        -0.0009828805923461914,
        0.10029397159814835
      ],
      "type": "VEC3"
    },
    {
      "bufferView": 13,
      "componentType": 5126,
      "count": 1838,
      "type": "VEC3"
    },
    {
      "bufferView": 14,
      "componentType": 5126,
      "count": 1838,
      "type": "VEC2"
    },
    {
      "bufferView": 15,
      "componentType": 5123,
      "count": 7644,
      "type": "SCALAR"
    },
    {
      "bufferView": 16,
      "componentType": 5126,
      "count": 559,
      "max": [
        -1.7577078342437744,
        1.0553655624389648,
        0.9999999403953552
      ],
      "min": [
        -3.757706642150879,
        -1,
        -0.9999982118606567
      ],
      "type": "VEC3"
    },
    {
      "bufferView": 17,
      "componentType": 5126,
      "count": 559,
      "type": "VEC3"
    },
    {
      "bufferView": 18,
      "componentType": 5126,
      "count": 559,
      "type": "VEC2"
    },
    {
      "bufferView": 19,
      "componentType": 5123,
      "count": 2880,
      "type": "SCALAR"
    },
    {
      "bufferView": 20,
      "componentType": 5126,
      "count": 559,
      "max": [
        -1.7577078342437744,
        1.0553655624389648,
        0.9999999403953552
      ],
      "min": [
        -3.757706642150879,
        -1,
        -0.9999982118606567
      ],
      "type": "VEC3"
    },
    {
      "bufferView": 21,
      "componentType": 5126,
      "count": 559,
      "type": "VEC3"
    },
    {
      "bufferView": 22,
      "componentType": 5126,
      "count": 559,
      "type": "VEC2"
    },
    {
      "bufferView": 23,
      "componentType": 5126,
      "count": 461,
      "max": [
        -1.7718324661254883,
        0.9297852516174316,
        0.9858753681182861
      ],
      "min": [
        -3.743582010269165,
        -0.9861316084861755,
        -0.9858736991882324
      ],
      "type": "VEC3"
    },
    {
      "bufferView": 24,
      "componentType": 5126,
      "count": 461,
      "type": "VEC3"
    },
    {
      "bufferView": 25,
      "componentType": 5126,
      "count": 461,
      "type": "VEC2"
    },
    {
      "bufferView": 26,
      "componentType": 5123,
      "count": 2400,
      "type": "SCALAR"
    },
    {
      "bufferView": 27,
      "componentType": 5126,
      "count": 132,
      "max": [
        -2.4500396251678467,
        0.9911616444587708,
        0.3076654076576233
      ],
      "min": [
        -3.065368890762329,
        0.9377331137657166,
        -0.3076644241809845
      ],
      "type": "VEC3"
    },
    {
      "bufferView": 28,
      "componentType": 5126,
      "count": 132,
      "type": "VEC3"
    },
    {
      "bufferView": 29,
      "componentType": 5126,
      "count": 132,
      "type": "VEC2"
    },
    {
      "bufferView": 30,
      "componentType": 5123,
      "count": 576,
      "type": "SCALAR"
    },
    {
      "bufferView": 31,
      "componentType": 5126,
      "count": 65,
      "max": [
        -2.640847682952881,
        0.9911616444587708,
        0.11686667054891586
      ],
      "min": [
        -2.874579429626465,
        0.9902194738388062,
        -0.11686520278453827
      ],
      "type": "VEC3"
    },
    {
      "bufferView": 32,
      "componentType": 5126,
      "count": 65,
      "type": "VEC3"
    },
    {
      "bufferView": 33,
      "componentType": 5126,
      "count": 65,
      "type": "VEC2"
    },
    {
      "bufferView": 34,
      "componentType": 5123,
      "count": 96,
      "type": "SCALAR"
    },
    {
      "bufferView": 35,
      "componentType": 5126,
      "count": 66,
      "max": [
        -2.4371109008789062,
        0.9377344250679016,
        0.32059380412101746
      ],
      "min": [
        -3.0782973766326904,
        0.9297840595245361,
        -0.3205929100513458
      ],
      "type": "VEC3"
    },
    {
      "bufferView": 36,
      "componentType": 5126,
      "count": 66,
      "type": "VEC3"
    },
    {
      "bufferView": 37,
      "componentType": 5126,
      "count": 66,
      "type": "VEC2"
    },
    {
      "bufferView": 38,
      "componentType": 5123,
      "count": 192,
      "type": "SCALAR"
    },
    {
      "bufferView": 39,
      "componentType": 5126,
      "count": 461,
      "max": [
        -1.7718324661254883,
        0.9297852516174316,
        0.9858753681182861
      ],
      "min": [
        -3.743582010269165,
        -0.9861316084861755,
        -0.9858736991882324
      ],
      "type": "VEC3"
    },
    {
      "bufferView": 40,
      "componentType": 5126,
      "count": 461,
      "type": "VEC3"
    },
    {
      "bufferView": 41,
      "componentType": 5126,
      "count": 461,
      "type": "VEC2"
    },
    {
      "bufferView": 42,
      "componentType": 5126,
      "count": 132,
      "max": [
        -2.4500396251678467,
        0.9911616444587708,
        0.3076654076576233
      ],
      "min": [
        -3.065368890762329,
        0.9377331137657166,
        -0.3076644241809845
      ],
      "type": "VEC3"
    },
    {
      "bufferView": 43,
      "componentType": 5126,
      "count": 132,
      "type": "VEC3"
    },
    {
      "bufferView": 44,
      "componentType": 5126,
      "count": 132,
      "type": "VEC2"
    },
    {
      "bufferView": 45,
      "componentType": 5126,
      "count": 65,
      "max": [
        -2.640847682952881,
        0.9911616444587708,
        0.11686667054891586
      ],
      "min": [
        -2.874579429626465,
        0.9902194738388062,
        -0.11686520278453827
      ],
      "type": "VEC3"
    },
    {
      "bufferView": 46,
      "componentType": 5126,
      "count": 65,
      "type": "VEC3"
    },
    {
      "bufferView": 47,
      "componentType": 5126,
      "count": 65,
      "type": "VEC2"
    },
    {
      "bufferView": 48,
      "componentType": 5126,
      "count": 66,
      "max": [
        -2.4371109008789062,
        0.9377344250679016,
        0.32059380412101746
      ],
      "min": [
        -3.0782973766326904,
        0.9297840595245361,
        -0.3205929100513458
      ],
      "type": "VEC3"
    },
    {
      "bufferView": 49,
      "componentType": 5126,
      "count": 66,
      "type": "VEC3"
    },
    {
      "bufferView": 50,
      "componentType": 5126,
      "count": 66,
      "type": "VEC2"
    },
    {
      "bufferView": 51,
      "componentType": 5126,
      "count": 596,
      "max": [
        0.02313506230711937,
        -0.05723738670349121,
        0.0022300556302070618
      ],
      "min": [
        -0.08939549326896667,
        -0.06836974620819092,
        -0.013592459261417389
      ],
      "type": "VEC3"
    },
    {
      "bufferView": 52,
      "componentType": 5126,
      "count": 596,
      "type": "VEC3"
    },
    {
      "bufferView": 53,
      "componentType": 5126,
      "count": 596,
      "type": "VEC2"
    },
    {
      "bufferView": 54,
      "componentType": 5126,
      "count": 596,
      "type": "VEC2"
    },
    {
      "bufferView": 55,
      "componentType": 5123,
      "count": 1200,
      "type": "SCALAR"
    },
    {
      "bufferView": 56,
      "componentType": 5126,
      "count": 13720,
      "max": [
        1.2135915756225586,
        1.319326639175415,
        -4.5663604736328125
      ],
      "min": [
        -7.3551483154296875,
        -0.8711614608764648,
        -6.3152666091918945
      ],
      "type": "VEC3"
    },
    {
      "bufferView": 57,
      "componentType": 5126,
      "count": 13720,
      "type": "VEC3"
    },
    {
      "bufferView": 58,
      "componentType": 5126,
      "count": 13720,
      "type": "VEC2"
    },
    {
      "bufferView": 59,
      "componentType": 5123,
      "count": 80472,
      "type": "SCALAR"
    }
  ],
  "bufferViews": [
    {
      "buffer": 0,
      "byteLength": 6408,
      "byteOffset": 0,
      "target": 34962
    },
    {
      "buffer": 0,
      "byteLength": 6408,
      "byteOffset": 6408,
      "target": 34962
    },
    {
      "buffer": 0,
      "byteLength": 4272,
      "byteOffset": 12816,
      "target": 34962
    },
    {
      "buffer": 0,
      "byteLength": 4860,
      "byteOffset": 17088,
      "target": 34963
    },
    {
      "buffer": 0,
      "byteLength": 9768,
      "byteOffset": 21948,
      "target": 34962
    },
    {
      "buffer": 0,
      "byteLength": 9768,
      "byteOffset": 31716,
      "target": 34962
    },
    {
      "buffer": 0,
      "byteLength": 6512,
      "byteOffset": 41484,
      "target": 34962
    },
    {
      "buffer": 0,
      "byteLength": 6492,
      "byteOffset": 47996,
      "target": 34963
    },
    {
      "buffer": 0,
      "byteLength": 271128,
      "byteOffset": 54488,
      "target": 34962
    },
    {
      "buffer": 0,
      "byteLength": 271128,
      "byteOffset": 325616,
      "target": 34962
    },
    {
      "buffer": 0,
      "byteLength": 180752,
      "byteOffset": 596744,
      "target": 34962
    },
    {
      "buffer": 0,
      "byteLength": 240468,
      "byteOffset": 777496,
      "target": 34963
    },
    {
      "buffer": 0,
      "byteLength": 22056,
      "byteOffset": 1017964,
      "target": 34962
    },
    {
      "buffer": 0,
      "byteLength": 22056,
      "byteOffset": 1040020,
      "target": 34962
    },
    {
      "buffer": 0,
      "byteLength": 14704,
      "byteOffset": 1062076,
      "target": 34962
    },
    {
      "buffer": 0,
      "byteLength": 15288,
      "byteOffset": 1076780,
      "target": 34963
    },
    {
      "buffer": 0,
      "byteLength": 6708,
      "byteOffset": 1092068,
      "target": 34962
    },
    {
      "buffer": 0,
      "byteLength": 6708,
      "byteOffset": 1098776,
      "target": 34962
    },
    {
      "buffer": 0,
      "byteLength": 4472,
      "byteOffset": 1105484,
      "target": 34962
    },
    {
      "buffer": 0,
      "byteLength": 5760,
      "byteOffset": 1109956,
      "target": 34963
    },
    {
      "buffer": 0,
      "byteLength": 6708,
      "byteOffset": 1115716,
      "target": 34962
    },
    {
      "buffer": 0,
      "byteLength": 6708,
      "byteOffset": 1122424,
      "target": 34962
    },
    {
      "buffer": 0,
      "byteLength": 4472,
      "byteOffset": 1129132,
      "target": 34962
    },
    {
      "buffer": 0,
      "byteLength": 5532,
      "byteOffset": 1133604,
      "target": 34962
    },
    {
      "buffer": 0,
      "byteLength": 5532,
      "byteOffset": 1139136,
      "target": 34962
    },
    {
      "buffer": 0,
      "byteLength": 3688,
      "byteOffset": 1144668,
      "target": 34962
    },
    {
      "buffer": 0,
      "byteLength": 4800,
      "byteOffset": 1148356,
      "target": 34963
    },
    {
      "buffer": 0,
      "byteLength": 1584,
      "byteOffset": 1153156,
      "target": 34962
    },
    {
      "buffer": 0,
      "byteLength": 1584,
      "byteOffset": 1154740,
      "target": 34962
    },
    {
      "buffer": 0,
      "byteLength": 1056,
      "byteOffset": 1156324,
      "target": 34962
    },
    {
      "buffer": 0,
      "byteLength": 1152,
      "byteOffset": 1157380,
      "target": 34963
    },
    {
      "buffer": 0,
      "byteLength": 780,
      "byteOffset": 1158532,
      "target": 34962
    },
    {
      "buffer": 0,
      "byteLength": 780,
      "byteOffset": 1159312,
      "target": 34962
    },
    {
      "buffer": 0,
      "byteLength": 520,
      "byteOffset": 1160092,
      "target": 34962
    },
    {
      "buffer": 0,
      "byteLength": 192,
      "byteOffset": 1160612,
      "target": 34963
    },
    {
      "buffer": 0,
      "byteLength": 792,
      "byteOffset": 1160804,
      "target": 34962
    },
    {
      "buffer": 0,
      "byteLength": 792,
      "byteOffset": 1161596,
      "target": 34962
    },
    {
      "buffer": 0,
      "byteLength": 528,
      "byteOffset": 1162388,
      "target": 34962
    },
    {
      "buffer": 0,
      "byteLength": 384,
      "byteOffset": 1162916,
      "target": 34963
    },
    {
      "buffer": 0,
      "byteLength": 5532,
      "byteOffset": 1163300,
      "target": 34962
    },
    {
      "buffer": 0,
      "byteLength": 5532,
      "byteOffset": 1168832,
      "target": 34962
    },
    {
      "buffer": 0,
      "byteLength": 3688,
      "byteOffset": 1174364,
      "target": 34962
    },
    {
      "buffer": 0,
      "byteLength": 1584,
      "byteOffset": 1178052,
      "target": 34962
    },
    {
      "buffer": 0,
      "byteLength": 1584,
      "byteOffset": 1179636,
      "target": 34962
    },
    {
      "buffer": 0,
      "byteLength": 1056,
      "byteOffset": 1181220,
      "target": 34962
    },
    {
      "buffer": 0,
      "byteLength": 780,
      "byteOffset": 1182276,
      "target": 34962
    },
    {
      "buffer": 0,
      "byteLength": 780,
      "byteOffset": 1183056,
      "target": 34962
    },
    {
      "buffer": 0,
      "byteLength": 520,
      "byteOffset": 1183836,
      "target": 34962
    },
    {
      "buffer": 0,
      "byteLength": 792,
      "byteOffset": 1184356,
      "target": 34962
    },
    {
      "buffer": 0,
      "byteLength": 792,
      "byteOffset": 1185148,
      "target": 34962
    },
    {
      "buffer": 0,
      "byteLength": 528,
      "byteOffset": 1185940,
      "target": 34962
    },
    {
      "buffer": 0,
      "byteLength": 7152,
      "byteOffset": 1186468,
      "target": 34962
    },
    {
      "buffer": 0,
      "byteLength": 7152,
      "byteOffset": 1193620,
      "target": 34962
    },
    {
      "buffer": 0,
      "byteLength": 4768,
      "byteOffset": 1200772,
      "target": 34962
    },
    {
      "buffer": 0,
      "byteLength": 4768,
      "byteOffset": 1205540,
      "target": 34962
    },
    {
      "buffer": 0,
      "byteLength": 2400,
      "byteOffset": 1210308,
      "target": 34963
    },
    {
      "buffer": 0,
      "byteLength": 164640,
      "byteOffset": 1212708,
      "target": 34962
    },
    {
      "buffer": 0,
      "byteLength": 164640,
      "byteOffset": 1377348,
      "target": 34962
    },
    {
      "buffer": 0,
      "byteLength": 109760,
      "byteOffset": 1541988,
      "target": 34962
    },
    {
      "buffer": 0,
      "byteLength": 160944,
      "byteOffset": 1651748,
      "target": 34963
    }
  ],
  "buffers": [
    {
      "uri": "Female_data.bin",
      "byteLength": 1812692
    }
  ]
}