{
  "asset": {
    "generator": "Microsoft GLTF Exporter 2.8.3.55",
    "version": "2.0"
  },
  "accessors": [
    {
      "bufferView": 0,
      "componentType": 5126,
      "count": 146754,
      "type": "VEC3",
      "max": [
        5.84250020980835,
        20.684099197387695,
        1.9170000553131104
      ],
      "min": [
        -5.84250020980835,
        -0.05660000070929527,
        -1.8530999422073364
      ]
    },
    {
      "bufferView": 1,
      "componentType": 5126,
      "count": 146754,
      "type": "VEC3"
    }
  ],
  "bufferViews": [
    {
      "buffer": 0,
      "byteOffset": 0,
      "byteLength": 1761048,
      "target": 34962
    },
    {
      "buffer": 0,
      "byteOffset": 1761048,
      "byteLength": 1761048,
      "target": 34962
    }
  ],
  "buffers": [
    {
      "uri": "male_data.bin",
      "byteLength": 3522096
    }
  ],
  "materials": [
    {
      "pbrMetallicRoughness": {},
      "doubleSided": true,
      "extensions": {
        "KHR_materials_pbrSpecularGlossiness": {
          "diffuseFactor": [
            0.2196078598499298,
            0.2196078598499298,
            0.2196078598499298,
            1
          ],
          "specularFactor": [
            0,
            0,
            0
          ]
        }
      }
    }
  ],
  "meshes": [
    {
      "primitives": [
        {
          "attributes": {
            "NORMAL": 1,
            "POSITION": 0
          },
          "material": 0
        }
      ]
    }
  ],
  "nodes": [
    {
      "mesh": 0,
      "name": "Asset3DLoader.sceneRoot"
    }
  ],
  "scenes": [
    {
      "nodes": [
        0
      ]
    }
  ],
  "scene": 0,
  "extensionsUsed": [
    "KHR_materials_pbrSpecularGlossiness"
  ],
  "extensionsRequired": [
    "KHR_materials_pbrSpecularGlossiness"
  ]
}